<svg width="25" height="27" viewBox="0 0 25 27" fill="none" xmlns="http://www.w3.org/2000/svg">
<path d="M17.5748 7.96491C12.165 0.971651 9.04946 5.30752 16.3636 10.2818C23.6778 15.256 23.7071 15.2503 23.7071 15.2503C21.3765 12.2376 19.9053 10.9776 17.5748 7.96491Z" fill="black"/>
<path d="M16.5101 20.217C9.79507 24.371 11.3327 30.1575 17.5158 22.7227C23.6989 15.2879 23.7071 15.2478 23.7071 15.2478C20.8143 17.0373 19.4029 18.4275 16.5101 20.217Z" fill="black"/>
<path d="M9.6325 13.745C-3.319 11.9147 -2.87348 18.3085 10.4024 16.7928C23.6782 15.277 23.7071 15.2482 23.7071 15.2482C18.1276 14.4597 15.212 14.5335 9.6325 13.745Z" fill="black"/>
</svg>
